<?xml version="1.0" standalone="no"?>
<!DOCTYPE svg PUBLIC "-//W3C//DTD SVG 20010904//EN"
 "http://www.w3.org/TR/2001/REC-SVG-20010904/DTD/svg10.dtd">
<svg version="1.0" xmlns="http://www.w3.org/2000/svg"
 width="318.000000pt" height="319.000000pt" viewBox="0 0 318.000000 319.000000"
 preserveAspectRatio="xMidYMid meet">
<metadata>
Created by potrace 1.16, written by Peter Selinger 2001-2019
</metadata>
<g transform="translate(0.000000,319.000000) scale(0.100000,-0.100000)"
fill="#000000" stroke="none">
<path d="M695 3024 c-16 -2 -66 -9 -110 -15 -102 -13 -176 -48 -207 -97 -21
-34 -23 -51 -27 -192 -4 -176 15 -545 31 -605 15 -60 45 -95 107 -124 53 -25
65 -26 216 -27 88 0 168 -1 178 -2 28 -3 47 -63 47 -147 l0 -75 -76 0 c-62 0
-86 -5 -128 -26 -28 -14 -55 -29 -60 -34 -9 -9 50 -66 88 -86 13 -7 128 -14
309 -17 279 -6 288 -6 308 14 30 30 23 86 -14 113 -24 18 -45 21 -147 24
l-118 4 -7 86 c-3 48 -7 101 -8 117 l-2 30 282 5 c265 5 283 6 309 26 15 11
37 32 48 47 19 26 20 41 19 340 -1 180 -6 341 -12 381 -28 166 -110 231 -310
247 -124 9 -672 20 -716 13z m688 -184 c105 -11 145 -31 172 -85 18 -37 20
-65 23 -337 l4 -298 -496 0 -496 0 -32 29 -32 29 -9 168 c-10 200 -2 431 16
452 7 9 30 23 52 33 36 17 72 19 375 19 184 0 375 -5 423 -10z"/>
<path d="M2266 2829 c-71 -10 -99 -27 -116 -70 -13 -31 -12 -33 20 -62 l33
-29 116 4 c101 5 344 -13 392 -27 8 -3 29 -19 45 -36 l29 -30 5 -272 c4 -189
10 -282 19 -304 7 -18 15 -33 17 -33 9 0 80 48 92 62 7 8 21 51 33 94 37 139
28 314 -26 497 -24 82 -79 137 -165 165 -144 47 -341 63 -494 41z"/>
<path d="M2205 1710 c-145 -23 -282 -85 -333 -150 -53 -68 -54 -78 -64 -385
-13 -407 9 -692 63 -797 37 -72 168 -141 329 -174 159 -32 371 -4 579 76 125
49 118 27 124 365 3 160 11 344 18 410 7 66 13 193 13 282 1 149 -1 164 -20
190 -43 58 -166 117 -333 159 -109 28 -280 39 -376 24z m334 -185 c171 -44
241 -75 241 -109 0 -6 -15 -26 -32 -43 -99 -96 -610 -117 -730 -31 -35 25 -37
71 -5 111 17 21 52 38 152 72 72 24 146 44 165 44 19 0 113 -19 209 -44z m227
-452 c-4 -38 -17 -88 -29 -113 -44 -90 -124 -110 -472 -117 -246 -5 -250 -5
-277 17 -28 21 -28 22 -28 151 l0 129 406 0 406 0 -6 -67z m-28 -478 c-4 -157
-8 -162 -153 -201 -141 -38 -316 -40 -424 -5 -119 39 -171 108 -171 225 0 27
4 36 18 37 9 0 168 15 352 33 184 19 345 34 358 35 l24 1 -4 -125z"/>
<path d="M346 1269 l-27 -31 6 -147 c12 -313 27 -518 40 -567 11 -37 26 -62
54 -87 70 -63 98 -67 518 -67 360 0 374 1 393 20 37 37 18 103 -34 119 -17 5
-184 13 -371 17 -260 5 -346 10 -367 20 -60 31 -72 98 -84 476 -7 217 -7 217
-33 241 -43 41 -65 42 -95 6z"/>
</g>
</svg>
